<svg xmlns="http://www.w3.org/2000/svg" xmlns:xlink="http://www.w3.org/1999/xlink" width="48" zoomAndPan="magnify" viewBox="0 0 36 36.000001" height="48" preserveAspectRatio="xMidYMid meet" version="1.0"><defs><clipPath id="bc743dc253"><path d="M 0.488281 8 L 11 8 L 11 27 L 0.488281 27 Z M 0.488281 8 " clip-rule="nonzero"/></clipPath><clipPath id="56ccfb1a6e"><path d="M 32 0 L 35.511719 0 L 35.511719 10 L 32 10 Z M 32 0 " clip-rule="nonzero"/></clipPath><clipPath id="a0530ae901"><path d="M 33 12 L 35.511719 12 L 35.511719 15 L 33 15 Z M 33 12 " clip-rule="nonzero"/></clipPath></defs><g clip-path="url(#bc743dc253)"><path fill="#0097b2" d="M 8.535156 19.558594 C 8.402344 19.429688 8.269531 19.300781 8.132812 19.167969 C 6.757812 17.851562 5.394531 16.53125 4.113281 15.117188 C 3.683594 14.597656 3.191406 14.148438 2.636719 13.769531 C 2.253906 13.527344 1.839844 13.429688 1.390625 13.476562 C 0.984375 13.515625 0.714844 13.730469 0.585938 14.117188 C 0.539062 14.246094 0.511719 14.378906 0.503906 14.515625 C 0.488281 14.808594 0.488281 15.101562 0.507812 15.394531 C 0.613281 16.441406 0.714844 17.4375 0.902344 18.472656 C 1.074219 19.425781 1.195312 20.378906 1.378906 21.332031 C 1.640625 22.742188 2.027344 24.121094 2.535156 25.46875 C 2.582031 25.589844 2.648438 25.695312 2.738281 25.789062 C 2.828125 25.882812 2.929688 25.957031 3.046875 26.007812 C 3.167969 26.058594 3.289062 26.085938 3.417969 26.089844 C 3.546875 26.09375 3.671875 26.074219 3.792969 26.027344 C 3.914062 25.980469 4.019531 25.910156 4.113281 25.824219 C 4.207031 25.734375 4.28125 25.628906 4.335938 25.511719 C 4.386719 25.394531 4.414062 25.269531 4.417969 25.140625 C 4.421875 25.011719 4.398438 24.886719 4.351562 24.765625 C 3.886719 23.527344 3.53125 22.257812 3.289062 20.957031 C 3.105469 20.015625 2.988281 19.066406 2.816406 18.125 C 2.707031 17.515625 2.628906 16.914062 2.5625 16.308594 L 2.671875 16.433594 C 3.984375 17.882812 5.382812 19.238281 6.789062 20.585938 C 7.316406 21.09375 7.828125 21.613281 8.363281 22.109375 C 8.46875 22.265625 8.582031 22.417969 8.703125 22.5625 C 8.84375 22.707031 9.007812 22.808594 9.199219 22.867188 C 9.40625 22.941406 9.617188 22.945312 9.828125 22.878906 C 10.039062 22.808594 10.207031 22.683594 10.332031 22.5 C 10.632812 22.066406 10.765625 21.582031 10.730469 21.054688 C 10.648438 20.230469 10.515625 19.417969 10.332031 18.609375 C 9.90625 15.398438 9.21875 12.199219 9.035156 8.957031 C 9.03125 8.828125 9 8.703125 8.945312 8.582031 C 8.890625 8.464844 8.8125 8.359375 8.71875 8.273438 C 8.621094 8.183594 8.511719 8.117188 8.386719 8.074219 C 8.261719 8.027344 8.136719 8.011719 8.003906 8.019531 C 7.875 8.023438 7.75 8.058594 7.632812 8.117188 C 7.515625 8.171875 7.410156 8.25 7.324219 8.351562 C 7.238281 8.449219 7.175781 8.5625 7.132812 8.6875 C 7.09375 8.808594 7.078125 8.9375 7.089844 9.070312 C 7.273438 12.359375 7.96875 15.605469 8.398438 18.867188 C 8.417969 19.027344 8.472656 19.277344 8.535156 19.558594 Z M 8.535156 19.558594 " fill-opacity="1" fill-rule="evenodd"/></g><path fill="#0097b2" d="M 17.050781 6.246094 C 15.914062 6.441406 14.882812 6.878906 13.949219 7.554688 C 13.007812 8.429688 12.484375 9.507812 12.382812 10.789062 C 12.257812 12.410156 12.34375 14.019531 12.632812 15.617188 C 12.699219 16.453125 12.8125 17.285156 12.964844 18.109375 C 13.101562 18.804688 13.40625 19.417969 13.878906 19.949219 C 14.277344 20.300781 14.742188 20.507812 15.269531 20.570312 C 15.800781 20.632812 16.296875 20.539062 16.769531 20.292969 C 17.980469 19.78125 18.945312 18.976562 19.667969 17.882812 C 19.78125 17.640625 19.796875 17.398438 19.710938 17.144531 C 19.625 16.894531 19.460938 16.710938 19.222656 16.589844 C 18.984375 16.472656 18.738281 16.453125 18.488281 16.535156 C 18.234375 16.621094 18.046875 16.777344 17.925781 17.015625 C 17.441406 17.691406 16.8125 18.179688 16.039062 18.484375 C 15.867188 18.558594 15.691406 18.605469 15.507812 18.628906 C 15.421875 18.632812 15.332031 18.648438 15.273438 18.585938 C 14.984375 18.207031 14.824219 17.777344 14.789062 17.304688 C 14.671875 16.617188 14.636719 15.898438 14.566406 15.355469 C 14.296875 13.925781 14.210938 12.488281 14.3125 11.039062 C 14.355469 10.25 14.65625 9.582031 15.21875 9.03125 C 15.925781 8.550781 16.703125 8.25 17.550781 8.128906 C 17.675781 8.097656 17.789062 8.042969 17.890625 7.964844 C 17.996094 7.886719 18.078125 7.789062 18.144531 7.679688 C 18.207031 7.566406 18.25 7.445312 18.265625 7.316406 C 18.285156 7.191406 18.277344 7.0625 18.242188 6.9375 C 18.210938 6.8125 18.15625 6.699219 18.078125 6.597656 C 17.996094 6.496094 17.902344 6.410156 17.792969 6.34375 C 17.679688 6.28125 17.558594 6.238281 17.429688 6.222656 C 17.304688 6.207031 17.175781 6.214844 17.050781 6.246094 Z M 17.050781 6.246094 " fill-opacity="1" fill-rule="evenodd"/><path fill="#0097b2" d="M 16.972656 11.378906 C 16.109375 11.871094 15.214844 12.296875 14.285156 12.65625 C 14.160156 12.695312 14.042969 12.757812 13.941406 12.84375 C 13.839844 12.929688 13.761719 13.03125 13.699219 13.152344 C 13.640625 13.269531 13.609375 13.394531 13.601562 13.527344 C 13.59375 13.660156 13.609375 13.789062 13.65625 13.917969 C 13.699219 14.042969 13.769531 14.152344 13.859375 14.25 C 13.949219 14.347656 14.054688 14.421875 14.179688 14.476562 C 14.300781 14.53125 14.425781 14.558594 14.5625 14.558594 C 14.695312 14.5625 14.820312 14.539062 14.945312 14.488281 C 15.96875 14.09375 16.957031 13.628906 17.90625 13.089844 C 18.019531 13.027344 18.117188 12.945312 18.199219 12.847656 C 18.28125 12.746094 18.339844 12.632812 18.375 12.507812 C 18.414062 12.386719 18.425781 12.257812 18.410156 12.128906 C 18.398438 12 18.359375 11.882812 18.296875 11.765625 C 18.234375 11.652344 18.15625 11.554688 18.054688 11.476562 C 17.953125 11.394531 17.839844 11.335938 17.71875 11.296875 C 17.59375 11.261719 17.46875 11.25 17.339844 11.265625 C 17.210938 11.277344 17.089844 11.316406 16.976562 11.378906 Z M 16.972656 11.378906 " fill-opacity="1" fill-rule="evenodd"/><path fill="#0097b2" d="M 28.742188 11.898438 C 28.035156 11.03125 27.28125 10.203125 26.484375 9.417969 C 26.066406 9.054688 25.617188 8.730469 25.144531 8.449219 C 24.902344 8.316406 24.644531 8.253906 24.371094 8.265625 C 24.152344 8.273438 23.957031 8.347656 23.789062 8.492188 C 23.621094 8.632812 23.511719 8.808594 23.46875 9.027344 C 23.355469 9.464844 23.304688 9.910156 23.3125 10.363281 C 22.5625 9.027344 21.96875 7.625 21.53125 6.160156 C 21.515625 6.09375 21.492188 6.03125 21.464844 5.972656 C 21.386719 5.777344 21.253906 5.632812 21.070312 5.53125 C 20.785156 5.351562 20.484375 5.335938 20.179688 5.484375 C 19.96875 5.574219 19.808594 5.726562 19.703125 5.933594 C 19.601562 6.140625 19.574219 6.355469 19.625 6.582031 C 19.640625 6.644531 19.75 7.09375 19.785156 7.265625 C 19.8125 7.417969 19.871094 7.550781 19.960938 7.671875 C 20.699219 9.589844 21.59375 11.433594 22.644531 13.199219 C 22.859375 13.582031 23.023438 13.984375 23.136719 14.40625 C 23.167969 14.53125 23.179688 14.8125 23.207031 14.949219 C 23.242188 15.121094 23.308594 15.277344 23.414062 15.417969 C 23.527344 15.59375 23.6875 15.710938 23.886719 15.777344 C 24.085938 15.84375 24.28125 15.839844 24.480469 15.769531 C 24.800781 15.6875 25.015625 15.488281 25.128906 15.175781 C 25.492188 14.121094 25.578125 13.046875 25.382812 11.945312 C 25.34375 11.617188 25.300781 11.289062 25.273438 10.960938 C 26.136719 11.835938 26.949219 12.757812 27.714844 13.722656 C 28.070312 14.148438 28.457031 14.546875 28.871094 14.917969 C 29.054688 15.046875 29.257812 15.101562 29.480469 15.089844 C 29.703125 15.074219 29.894531 14.992188 30.0625 14.84375 C 30.402344 14.519531 30.605469 14.121094 30.664062 13.652344 C 30.734375 12.984375 30.738281 12.3125 30.679688 11.644531 C 30.695312 9.042969 30.449219 6.464844 29.949219 3.914062 C 29.917969 3.789062 29.867188 3.671875 29.792969 3.570312 C 29.71875 3.464844 29.625 3.375 29.515625 3.308594 C 29.40625 3.238281 29.285156 3.195312 29.160156 3.171875 C 29.03125 3.152344 28.90625 3.15625 28.78125 3.183594 C 28.652344 3.214844 28.539062 3.265625 28.433594 3.339844 C 28.328125 3.417969 28.242188 3.507812 28.171875 3.617188 C 28.105469 3.726562 28.058594 3.847656 28.039062 3.972656 C 28.015625 4.101562 28.019531 4.230469 28.050781 4.355469 C 28.519531 6.777344 28.746094 9.226562 28.730469 11.695312 C 28.734375 11.746094 28.738281 11.816406 28.742188 11.898438 Z M 28.742188 11.898438 " fill-opacity="1" fill-rule="evenodd"/><g clip-path="url(#56ccfb1a6e)"><path fill="#0097b2" d="M 32.636719 3.265625 C 32.988281 4.972656 33.34375 6.664062 33.574219 8.421875 C 33.589844 8.550781 33.628906 8.671875 33.691406 8.789062 C 33.753906 8.902344 33.839844 9 33.941406 9.078125 C 34.042969 9.160156 34.160156 9.21875 34.285156 9.25 C 34.410156 9.285156 34.539062 9.296875 34.667969 9.277344 C 34.796875 9.261719 34.917969 9.21875 35.03125 9.152344 C 35.144531 9.089844 35.242188 9.003906 35.320312 8.898438 C 35.398438 8.792969 35.453125 8.679688 35.484375 8.550781 C 35.519531 8.425781 35.523438 8.296875 35.503906 8.167969 C 35.179688 5.691406 34.617188 3.339844 34.144531 0.898438 C 34.125 0.769531 34.082031 0.648438 34.015625 0.535156 C 33.945312 0.421875 33.859375 0.328125 33.75 0.253906 C 33.644531 0.175781 33.527344 0.125 33.398438 0.0976562 C 33.269531 0.0703125 33.140625 0.0664062 33.011719 0.09375 C 32.777344 0.125 32.585938 0.230469 32.433594 0.410156 C 32.277344 0.585938 32.203125 0.792969 32.207031 1.027344 C 32.207031 1.078125 32.234375 1.410156 32.242188 1.542969 C 32.253906 1.835938 32.246094 2.128906 32.230469 2.425781 C 32.214844 2.777344 32.347656 3.058594 32.636719 3.265625 Z M 32.636719 3.265625 " fill-opacity="1" fill-rule="evenodd"/></g><g clip-path="url(#a0530ae901)"><path fill="#0097b2" d="M 35.15625 13.335938 C 35.226562 13.132812 35.226562 12.925781 35.15625 12.722656 C 35.089844 12.519531 34.964844 12.355469 34.789062 12.230469 C 34.613281 12.109375 34.414062 12.050781 34.199219 12.058594 C 33.984375 12.066406 33.792969 12.136719 33.625 12.269531 C 33.453125 12.40625 33.328125 12.578125 33.253906 12.789062 C 33.179688 12.996094 33.167969 13.207031 33.214844 13.421875 C 33.246094 13.675781 33.355469 13.886719 33.550781 14.050781 C 33.746094 14.21875 33.96875 14.292969 34.226562 14.285156 C 34.480469 14.273438 34.699219 14.175781 34.878906 13.992188 C 35.058594 13.8125 35.152344 13.59375 35.15625 13.335938 Z M 35.15625 13.335938 " fill-opacity="1" fill-rule="evenodd"/></g><path fill="#0097b2" d="M 16.765625 32.132812 C 16.664062 31.921875 16.585938 31.757812 16.566406 31.71875 C 15.660156 30.027344 14.679688 28.355469 13.609375 26.761719 C 13.535156 26.65625 13.445312 26.566406 13.339844 26.492188 C 13.230469 26.421875 13.113281 26.375 12.988281 26.347656 C 12.859375 26.324219 12.734375 26.324219 12.609375 26.351562 C 12.480469 26.375 12.363281 26.425781 12.257812 26.496094 C 12.148438 26.566406 12.058594 26.65625 11.988281 26.765625 C 11.917969 26.871094 11.867188 26.988281 11.84375 27.117188 C 11.820312 27.242188 11.820312 27.371094 11.84375 27.496094 C 11.871094 27.625 11.917969 27.742188 11.992188 27.847656 C 13.023438 29.386719 13.972656 31.003906 14.847656 32.640625 C 15.089844 33.222656 15.363281 33.785156 15.675781 34.335938 C 15.878906 34.65625 16.164062 34.855469 16.535156 34.933594 C 16.785156 34.953125 17.023438 34.90625 17.25 34.792969 C 17.476562 34.679688 17.65625 34.519531 17.792969 34.304688 C 18.351562 33.355469 18.808594 32.359375 19.164062 31.3125 C 19.375 30.71875 19.558594 30.097656 19.722656 29.492188 C 20.023438 28.34375 20.242188 27.175781 20.386719 26 C 20.40625 25.871094 20.398438 25.742188 20.367188 25.617188 C 20.332031 25.492188 20.277344 25.378906 20.199219 25.277344 C 20.121094 25.171875 20.027344 25.089844 19.914062 25.023438 C 19.804688 24.957031 19.683594 24.917969 19.554688 24.898438 C 19.429688 24.882812 19.300781 24.890625 19.175781 24.921875 C 19.050781 24.953125 18.9375 25.011719 18.835938 25.085938 C 18.730469 25.164062 18.648438 25.261719 18.582031 25.371094 C 18.515625 25.484375 18.476562 25.601562 18.457031 25.730469 C 18.324219 26.824219 18.121094 27.90625 17.84375 28.976562 C 17.691406 29.535156 17.523438 30.109375 17.328125 30.660156 C 17.269531 30.816406 17.039062 31.492188 16.765625 32.132812 Z M 16.765625 32.132812 " fill-opacity="1" fill-rule="evenodd"/></svg>